<svg width="765" height="1024" viewBox="0 0 765 1024" fill="none" xmlns="http://www.w3.org/2000/svg">
    <defs>
        <linearGradient id="paint0_linear_734_1636" x1="-586" y1="21" x2="-586" y2="1045" gradientUnits="userSpaceOnUse">
            <stop stop-color="#91A5F5" stop-opacity="0.45"/>
            <stop offset="1" stop-color="#1C4DFF" stop-opacity="0.61"/>
        </linearGradient>
        <clipPath id="clip0_734_1636">
            <rect width="765" height="1024" fill="white"/>
        </clipPath>
        <clipPath id="clip1_734_1636">
            <rect width="89.9919" height="110.4" fill="white" transform="translate(89.9919 -28)"/>
        </clipPath>
        <clipPath id="clip2_734_1636">
            <rect width="110.4" height="89.9919" fill="white" transform="translate(0 -28)"/>
        </clipPath>
        <clipPath id="clip3_734_1636">
            <rect width="89.9919" height="89.9919" fill="white" transform="translate(269.976 -28)"/>
        </clipPath>
        <clipPath id="clip4_734_1636">
            <rect width="89.9919" height="89.9919" fill="white" transform="matrix(-1 0 0 1 89.9919 241.976)"/>
        </clipPath>
        <clipPath id="clip5_734_1636">
            <rect width="89.9919" height="110.4" fill="white" transform="matrix(-1 0 0 1 630.073 -28)"/>
        </clipPath>
        <clipPath id="clip6_734_1636">
            <rect width="110.4" height="89.9919" fill="white" transform="matrix(-1 0 0 1 720.065 -28)"/>
        </clipPath>
        <clipPath id="clip7_734_1636">
            <rect width="89.9919" height="89.9919" fill="white" transform="matrix(-1 0 0 1 450.09 -28)"/>
        </clipPath>
        <clipPath id="clip8_734_1636">
            <rect width="89.9919" height="89.9919" fill="white" transform="translate(630.073 241.976)"/>
        </clipPath>
        <clipPath id="clip9_734_1636">
            <rect width="110.4" height="89.9919" fill="white" transform="translate(719.935 -28)"/>
        </clipPath>
        <clipPath id="clip10_734_1636">
            <rect width="89.9919" height="89.9919" fill="white" transform="matrix(-1 0 0 1 809.927 241.976)"/>
        </clipPath>
        <clipPath id="clip11_734_1636">
            <rect width="110.4" height="89.9919" fill="white" transform="matrix(1 0 0 -1 719.935 1051.95)"/>
        </clipPath>
        <clipPath id="clip12_734_1636">
            <rect width="89.9919" height="89.9919" fill="white" transform="matrix(-1 0 0 -1 809.927 781.976)"/>
        </clipPath>
        <clipPath id="clip13_734_1636">
            <rect width="89.9919" height="110.4" fill="white" transform="matrix(-1 0 0 -1 630.073 1051.95)"/>
        </clipPath>
        <clipPath id="clip14_734_1636">
            <rect width="110.4" height="89.9919" fill="white" transform="matrix(-1 0 0 -1 720.065 1051.95)"/>
        </clipPath>
        <clipPath id="clip15_734_1636">
            <rect width="89.9919" height="89.9919" fill="white" transform="matrix(-1 0 0 -1 450.09 1051.95)"/>
        </clipPath>
        <clipPath id="clip16_734_1636">
            <rect width="89.9919" height="89.9919" fill="white" transform="matrix(1 0 0 -1 630.073 781.976)"/>
        </clipPath>
        <clipPath id="clip17_734_1636">
            <rect width="89.9919" height="110.4" fill="white" transform="matrix(1 0 0 -1 89.9919 1051.95)"/>
        </clipPath>
        <clipPath id="clip18_734_1636">
            <rect width="110.4" height="89.9919" fill="white" transform="matrix(1 0 0 -1 0 1051.95)"/>
        </clipPath>
        <clipPath id="clip19_734_1636">
            <rect width="89.9919" height="89.9919" fill="white" transform="matrix(1 0 0 -1 269.976 1051.95)"/>
        </clipPath>
        <clipPath id="clip20_734_1636">
            <rect width="89.9919" height="89.9919" fill="white" transform="matrix(-1 0 0 -1 89.9919 781.976)"/>
        </clipPath>
    </defs>
    <g clip-path="url(#clip0_734_1636)">
<path d="M0 -28H359.967V511.951H0V-28Z" fill="#4967DF"/>
<path d="M44.9959 151.984H0V196.98H44.9959V151.984Z" fill="#4262E0"/>
<path d="M89.9919 196.98H0V241.976H89.9919V196.98Z" fill="#3553C9"/>
<g clip-path="url(#clip1_734_1636)">
<path d="M89.9919 -28V61.9919H114.55C114.543 64.6786 115.067 67.3402 116.092 69.824C117.116 72.3078 118.621 74.5648 120.52 76.4656C122.419 78.3663 124.674 79.8734 127.157 80.9004C129.64 81.9273 132.301 82.454 134.988 82.45C140.4 82.45 145.591 80.2999 149.419 76.4726C153.246 72.6453 155.396 67.4544 155.396 62.0419H179.984V-27.95L89.9919 -28Z" fill="#7A92F4"/>
</g>
<g clip-path="url(#clip2_734_1636)">
<path d="M110.4 16.9957C110.407 19.68 109.884 22.3392 108.861 24.821C107.838 27.3028 106.336 29.5584 104.44 31.4588C102.545 33.3592 100.293 34.8669 97.8133 35.8956C95.334 36.9244 92.6761 37.4539 89.9919 37.4539V62.0417H0V-27.9502H89.9919V-3.36242C95.3958 -3.36243 100.579 -1.21916 104.405 2.5973C108.231 6.41377 110.387 11.5918 110.4 16.9957V16.9957Z" fill="#91A5F5"/>
<path opacity="0.61" d="M0 -28L44.9959 16.9959L0 61.9919V-28Z" fill="#7A92F4"/>
</g>
<path opacity="0.56" d="M269.976 -28H179.984V61.9919H269.976V-28Z" fill="#4262E0"/>
<path d="M269.976 -28H179.984V61.9919H269.976V-28Z" fill="#4262E0"/>
<path d="M215.44 16.9959V61.9918H196.362V15.876C198.682 16.6205 201.105 16.9984 203.541 16.9959H215.44Z" fill="#3553C9"/>
<path d="M253.597 16.656V61.9919H234.539V16.996H249.997C251.206 16.9989 252.411 16.885 253.597 16.656V16.656Z" fill="#3553C9"/>
<path d="M179.984 -28H269.976V-3.00226C269.976 2.30159 267.869 7.38821 264.118 11.1386C260.368 14.889 255.281 16.9959 249.977 16.9959H203.552C197.301 16.9959 191.306 14.5129 186.887 10.0931C182.467 5.67323 179.984 -0.321352 179.984 -6.57194V-28Z" fill="#91A5F5"/>
<path d="M224.98 26.5348C230.248 26.5348 234.519 22.264 234.519 16.9957C234.519 11.7274 230.248 7.45654 224.98 7.45654C219.711 7.45654 215.44 11.7274 215.44 16.9957C215.44 22.264 219.711 26.5348 224.98 26.5348Z" fill="#839AF4"/>
<g clip-path="url(#clip3_734_1636)">
<path d="M359.967 -28H269.976V61.9919H359.967V-28Z" fill="#3553C9"/>
<path d="M359.967 -28V61.9919H289.974C284.67 61.9919 279.583 59.8849 275.833 56.1345C272.083 52.3841 269.976 47.2975 269.976 41.9937V-12.0814C269.976 -16.3033 271.653 -20.3523 274.638 -23.3376C277.623 -26.3229 281.672 -28 285.894 -28H359.967Z" fill="#4262E0"/>
<path d="M359.968 -28V61.9919H312.612C309.986 61.9919 307.385 61.4746 304.959 60.4696C302.533 59.4646 300.328 57.9915 298.471 56.1345C294.721 52.3841 292.614 47.2975 292.614 41.9937V-12.0814C292.614 -16.3033 294.291 -20.3523 297.276 -23.3376C300.261 -26.3229 304.31 -28 308.532 -28H359.968Z" fill="#3156E6"/>
<path d="M359.967 -27.96V61.9518H359.797C347.864 61.9518 336.419 57.2112 327.981 48.7728C319.542 40.3344 314.802 28.8895 314.802 16.9559C314.802 5.02223 319.542 -6.42267 327.981 -14.861C336.419 -23.2994 347.864 -28.04 359.797 -28.04L359.967 -27.96Z" fill="#233B9A"/>
<path d="M359.968 -15.4314V49.4527H359.808C355.547 49.4527 351.328 48.613 347.391 46.9815C343.455 45.35 339.879 42.9588 336.868 39.9445C333.856 36.9302 331.468 33.3519 329.84 29.4142C328.212 25.4765 327.377 21.2566 327.381 16.9957C327.381 8.39548 330.797 0.147527 336.878 -5.93373C342.959 -12.015 351.207 -15.4314 359.808 -15.4314H359.968Z" fill="#4262E0"/>
</g>
<path d="M89.9919 61.9919H0V151.984H89.9919V61.9919Z" fill="#7A92F4"/>
<path d="M44.9959 151.984C69.8465 151.984 89.9919 131.838 89.9919 106.988C89.9919 82.1373 69.8465 61.9919 44.9959 61.9919C20.1454 61.9919 0 82.1373 0 106.988C0 131.838 20.1454 151.984 44.9959 151.984Z" fill="#3E5EDD"/>
<path d="M270.006 117.077V61.9919H180.014H155.426C155.426 64.672 154.898 67.3258 153.872 69.8018C152.847 72.2778 151.344 74.5276 149.449 76.4227C147.553 78.3178 145.304 79.821 142.828 80.8466C140.352 81.8722 137.698 82.4001 135.018 82.4001C129.607 82.4081 124.414 80.2669 120.582 76.4475C116.749 72.628 114.59 67.4428 114.58 62.0319H89.9919V117.027H134.988V117.147C134.99 126.372 138.656 135.219 145.18 141.742C151.703 148.265 160.549 151.931 169.775 151.934H190.193C199.418 151.931 208.265 148.265 214.788 141.742C221.311 135.219 224.977 126.372 224.98 117.147V117.027H241.598V183.071L224.98 199.789H269.976L254.627 183.071V117.027L270.006 117.077Z" fill="#3553C9"/>
<path d="M89.9919 196.7V251.785H179.984H204.572C204.572 249.105 205.099 246.451 206.125 243.975C207.151 241.499 208.654 239.249 210.549 237.354C212.444 235.459 214.694 233.956 217.17 232.93C219.646 231.904 222.3 231.377 224.98 231.377C230.391 231.369 235.583 233.51 239.416 237.329C243.248 241.149 245.407 246.334 245.418 251.745H270.006V196.75H225.01V196.63C225.007 187.404 221.341 178.558 214.818 172.035C208.295 165.511 199.448 161.845 190.223 161.843H169.805C160.579 161.845 151.733 165.511 145.21 172.035C138.686 178.558 135.02 187.404 135.018 196.63V196.75H118.399V130.706L135.018 113.987H90.0219L105.371 130.706V196.75L89.9919 196.7Z" fill="#3553C9"/>
<path d="M360.097 61.9919H270.105V241.976H360.097V61.9919Z" fill="#3156E6"/>
<path opacity="0.34" d="M360.097 241.976H270.105V331.967H360.097V241.976Z" fill="#7A92F4"/>
<path d="M360.098 241.976H270.106V260.904H315.102C319.016 260.936 322.76 262.513 325.517 265.292C328.274 268.072 329.821 271.828 329.82 275.743C329.822 277.876 329.361 279.984 328.471 281.922C327.58 283.861 326.28 285.583 324.661 286.972H269.966V305.89H284.664L310.722 331.947H337.48L311.392 305.89H360.098V286.972H346.829C348.099 283.364 348.745 279.567 348.739 275.743C348.747 270.599 347.574 265.522 345.309 260.904H360.098V241.976Z" fill="#91A5F5"/>
<path d="M360.097 114.117V189.86C350.052 189.86 340.418 185.87 333.315 178.766C326.211 171.663 322.221 162.029 322.221 151.984C322.221 147.01 323.201 142.085 325.104 137.49C327.008 132.895 329.798 128.721 333.315 125.204C336.833 121.688 341.008 118.899 345.603 116.997C350.199 115.094 355.124 114.116 360.097 114.117V114.117Z" fill="#4B6DF4"/>
<path d="M217.85 332.097L142.107 332.097C142.107 322.052 146.098 312.418 153.201 305.314C160.304 298.211 169.938 294.221 179.984 294.221C184.957 294.221 189.882 295.2 194.477 297.104C199.072 299.008 203.247 301.798 206.763 305.315C210.279 308.832 213.068 313.008 214.971 317.603C216.873 322.199 217.852 327.124 217.85 332.097V332.097Z" fill="#3156E6"/>
<path d="M295.843 151.984C295.843 168.991 302.599 185.301 314.625 197.326C326.65 209.352 342.961 216.108 359.967 216.108V241.976C336.1 241.976 313.21 232.494 296.334 215.618C279.457 198.741 269.976 175.851 269.976 151.984C269.976 128.116 279.457 105.227 296.334 88.3499C313.21 71.4732 336.1 61.9919 359.967 61.9919V87.8596C342.961 87.8596 326.65 94.6155 314.625 106.641C302.599 118.667 295.843 134.977 295.843 151.984V151.984Z" fill="#4B6DF4"/>
<path d="M179.984 267.843C162.977 267.843 146.667 274.599 134.641 286.625C122.615 298.65 115.86 314.961 115.86 331.967L89.9919 331.967C89.9919 308.1 99.4731 285.21 116.35 268.334C133.227 251.457 156.116 241.976 179.984 241.976C203.851 241.976 226.741 251.457 243.618 268.334C260.494 285.21 269.976 308.1 269.976 331.967L244.108 331.967C244.108 314.961 237.352 298.65 225.326 286.625C213.301 274.599 196.991 267.843 179.984 267.843V267.843Z" fill="#3156E6"/>
<g clip-path="url(#clip4_734_1636)">
<path d="M2.28882e-05 241.976H89.9919V331.967H2.28882e-05V241.976Z" fill="#91A5F5"/>
<path opacity="0.61" d="M89.9919 241.976L44.996 286.972L89.9919 331.967V241.976Z" fill="#738CEF"/>
</g>
<circle cx="89.9919" cy="421.959" r="89.9919" fill="#7A92F4"/>
<path d="M179.984 421.959C179.984 441.633 173.537 460.765 161.629 476.426C149.722 492.087 133.011 503.415 114.053 508.675C95.0955 513.935 74.9365 512.838 56.6619 505.552C38.3872 498.265 23.0038 485.191 12.8665 468.33C2.72912 451.469 -1.60359 431.75 0.531535 412.193C2.66666 392.635 11.152 374.316 24.6886 360.04C38.2253 345.763 56.0674 336.316 75.4838 333.145C94.9002 329.973 114.821 333.251 132.197 342.478L89.9919 421.959H179.984Z" fill="#91A5F5"/>
<path d="M179.984 421.959C179.984 437.337 176.043 452.459 168.538 465.881C161.032 479.303 150.213 490.578 137.111 498.63C124.009 506.681 109.063 511.242 93.6982 511.875C78.3332 512.508 63.0623 509.194 49.3425 502.247C35.6228 495.301 23.9119 484.955 15.3273 472.196C6.74274 459.437 1.5709 444.692 0.30529 429.366C-0.960322 414.04 1.72251 398.645 8.09781 384.651C14.4731 370.657 24.3281 358.53 36.7226 349.427L89.9919 421.959H179.984Z" fill="#3553C9"/>
<rect x="179.984" y="331.968" width="179.984" height="118.989" fill="#3553C9"/>
<rect x="249.977" y="450.957" width="39.9964" height="18.9983" fill="#3553C9"/>
<rect x="179.984" y="469.955" width="179.984" height="41.9962" fill="#3553C9"/>
<rect x="280.975" y="481.954" width="62.9943" height="17.9984" rx="8.99919" fill="#7A92F4"/>
<circle cx="203.982" cy="490.953" r="8.99919" fill="#7A92F4"/>
<circle cx="231.979" cy="490.953" r="8.99919" fill="#7A92F4"/>
<path d="M720.065 -28H360.098V511.951H720.065V-28Z" fill="#4967DF"/>
<path d="M675.069 151.984H720.065V196.98H675.069V151.984Z" fill="#4262E0"/>
<path d="M630.073 196.98H720.065V241.976H630.073V196.98Z" fill="#3553C9"/>
<g clip-path="url(#clip5_734_1636)">
<path d="M630.073 -28V61.9919H605.515C605.522 64.6786 604.998 67.3402 603.974 69.824C602.949 72.3078 601.444 74.5648 599.545 76.4656C597.646 78.3663 595.391 79.8734 592.908 80.9004C590.425 81.9273 587.764 82.454 585.077 82.45C579.665 82.45 574.474 80.2999 570.647 76.4726C566.819 72.6453 564.669 67.4544 564.669 62.0419H540.081V-27.95L630.073 -28Z" fill="#7A92F4"/>
</g>
<g clip-path="url(#clip6_734_1636)">
<path d="M609.665 16.9957C609.659 19.68 610.182 22.3392 611.204 24.821C612.227 27.3028 613.729 29.5584 615.625 31.4588C617.521 33.3592 619.773 34.8669 622.252 35.8956C624.731 36.9244 627.389 37.4539 630.073 37.4539V62.0417H720.065V-27.9502H630.073V-3.36242C624.669 -3.36243 619.486 -1.21916 615.66 2.5973C611.834 6.41377 609.678 11.5918 609.665 16.9957V16.9957Z" fill="#91A5F5"/>
<path opacity="0.61" d="M720.065 -28L675.069 16.9959L720.065 61.9919V-28Z" fill="#7A92F4"/>
</g>
<path opacity="0.56" d="M450.09 -28H540.081V61.9919H450.09V-28Z" fill="#4262E0"/>
<path d="M450.09 -28H540.081V61.9919H450.09V-28Z" fill="#4262E0"/>
<path d="M504.625 16.9959V61.9918H523.703V15.876C521.383 16.6205 518.96 16.9984 516.524 16.9959H504.625Z" fill="#3553C9"/>
<path d="M466.468 16.656V61.9919H485.526V16.996H470.068C468.86 16.9989 467.654 16.885 466.468 16.656V16.656Z" fill="#3553C9"/>
<path d="M540.081 -28H450.09V-3.00226C450.09 2.30159 452.196 7.38821 455.947 11.1386C459.697 14.889 464.784 16.9959 470.088 16.9959H516.514C522.764 16.9959 528.759 14.5129 533.179 10.0931C537.598 5.67323 540.081 -0.321352 540.081 -6.57194V-28Z" fill="#91A5F5"/>
<path d="M495.085 26.5348C489.817 26.5348 485.546 22.264 485.546 16.9957C485.546 11.7274 489.817 7.45654 495.085 7.45654C500.354 7.45654 504.625 11.7274 504.625 16.9957C504.625 22.264 500.354 26.5348 495.085 26.5348Z" fill="#839AF4"/>
<g clip-path="url(#clip7_734_1636)">
<path d="M360.098 -28H450.09V61.9919H360.098V-28Z" fill="#3553C9"/>
<path d="M360.098 -28V61.9919H430.091C435.395 61.9919 440.482 59.8849 444.232 56.1345C447.983 52.3841 450.09 47.2975 450.09 41.9937V-12.0814C450.09 -16.3033 448.412 -20.3523 445.427 -23.3376C442.442 -26.3229 438.393 -28 434.171 -28H360.098Z" fill="#4262E0"/>
<path d="M360.098 -28V61.9919H407.453C410.079 61.9919 412.68 61.4746 415.106 60.4696C417.533 59.4646 419.737 57.9915 421.594 56.1345C425.345 52.3841 427.451 47.2975 427.451 41.9937V-12.0814C427.451 -16.3033 425.774 -20.3523 422.789 -23.3376C419.804 -26.3229 415.755 -28 411.533 -28H360.098Z" fill="#3156E6"/>
<path d="M360.098 -27.96V61.9518H360.268C372.201 61.9518 383.646 57.2112 392.085 48.7728C400.523 40.3344 405.264 28.8895 405.264 16.9559C405.264 5.02223 400.523 -6.42267 392.085 -14.861C383.646 -23.2994 372.201 -28.04 360.268 -28.04L360.098 -27.96Z" fill="#233B9A"/>
<path d="M360.098 -15.4314V49.4527H360.257C364.518 49.4527 368.738 48.613 372.674 46.9815C376.61 45.35 380.186 42.9588 383.197 39.9445C386.209 36.9302 388.597 33.3519 390.225 29.4142C391.853 25.4765 392.688 21.2566 392.685 16.9957C392.685 8.39548 389.268 0.147527 383.187 -5.93373C377.106 -12.015 368.858 -15.4314 360.257 -15.4314H360.098Z" fill="#4262E0"/>
</g>
<path d="M630.073 61.9919H720.065V151.984H630.073V61.9919Z" fill="#7A92F4"/>
<path d="M675.069 151.984C650.219 151.984 630.073 131.838 630.073 106.988C630.073 82.1373 650.219 61.9919 675.069 61.9919C699.92 61.9919 720.065 82.1373 720.065 106.988C720.065 131.838 699.92 151.984 675.069 151.984Z" fill="#3E5EDD"/>
<path d="M450.06 117.077V61.9919H540.051H564.639C564.639 64.672 565.167 67.3258 566.193 69.8018C567.218 72.2778 568.722 74.5276 570.617 76.4227C572.512 78.3178 574.761 79.821 577.237 80.8466C579.714 81.8722 582.367 82.4001 585.047 82.4001C590.458 82.4081 595.651 80.2669 599.483 76.4475C603.316 72.628 605.475 67.4428 605.485 62.0319H630.073V117.027H585.077V117.147C585.075 126.372 581.409 135.219 574.886 141.742C568.362 148.265 559.516 151.931 550.29 151.934H529.872C520.647 151.931 511.8 148.265 505.277 141.742C498.754 135.219 495.088 126.372 495.085 117.147V117.027H478.467V183.071L495.085 199.789H450.09L465.438 183.071V117.027L450.06 117.077Z" fill="#3553C9"/>
<path d="M630.073 196.7V251.785H540.081H515.494C515.494 249.105 514.966 246.451 513.94 243.975C512.915 241.499 511.411 239.249 509.516 237.354C507.621 235.459 505.371 233.956 502.895 232.93C500.419 231.904 497.765 231.377 495.085 231.377C489.675 231.369 484.482 233.51 480.649 237.329C476.817 241.149 474.658 246.334 474.647 251.745H450.06V196.75H495.055V196.63C495.058 187.404 498.724 178.558 505.247 172.035C511.77 165.511 520.617 161.845 529.842 161.843H550.26C559.486 161.845 568.332 165.511 574.856 172.035C581.379 178.558 585.045 187.404 585.047 196.63V196.75H601.666V130.706L585.047 113.987H630.043L614.695 130.706V196.75L630.073 196.7Z" fill="#3553C9"/>
<path d="M359.968 61.9919H449.96V241.976H359.968V61.9919Z" fill="#3156E6"/>
<path opacity="0.34" d="M359.968 241.976H449.96V331.967H359.968V241.976Z" fill="#7A92F4"/>
<path d="M359.967 241.976H449.959V260.904H404.963C401.049 260.936 397.305 262.513 394.548 265.292C391.791 268.072 390.245 271.828 390.245 275.743C390.243 277.876 390.704 279.984 391.595 281.922C392.485 283.861 393.785 285.583 395.404 286.972H450.099V305.89H435.401L409.343 331.947H382.585L408.673 305.89H359.967V286.972H373.236C371.966 283.364 371.32 279.567 371.326 275.743C371.318 270.599 372.491 265.522 374.756 260.904H359.967V241.976Z" fill="#91A5F5"/>
<path d="M359.968 114.117V189.86C370.013 189.86 379.647 185.87 386.75 178.766C393.854 171.663 397.844 162.029 397.844 151.984C397.844 147.01 396.864 142.085 394.961 137.49C393.057 132.895 390.267 128.721 386.75 125.204C383.233 121.688 379.057 118.899 374.462 116.997C369.866 115.094 364.941 114.116 359.968 114.117V114.117Z" fill="#4B6DF4"/>
<path d="M502.215 332.097L577.958 332.097C577.958 322.052 573.967 312.418 566.864 305.314C559.761 298.211 550.127 294.221 540.081 294.221C535.108 294.221 530.183 295.2 525.588 297.104C520.993 299.008 516.818 301.798 513.302 305.315C509.786 308.832 506.997 313.008 505.094 317.603C503.192 322.199 502.213 327.124 502.215 332.097V332.097Z" fill="#3156E6"/>
<path d="M424.222 151.984C424.222 168.991 417.466 185.301 405.44 197.326C393.415 209.352 377.104 216.108 360.098 216.108V241.976C383.965 241.976 406.855 232.494 423.732 215.618C440.608 198.741 450.09 175.851 450.09 151.984C450.09 128.116 440.608 105.227 423.732 88.3499C406.855 71.4732 383.965 61.9919 360.098 61.9919V87.8596C377.104 87.8596 393.415 94.6155 405.44 106.641C417.466 118.667 424.222 134.977 424.222 151.984V151.984Z" fill="#4B6DF4"/>
<path d="M540.081 267.843C557.088 267.843 573.398 274.599 585.424 286.625C597.45 298.65 604.206 314.961 604.206 331.967L630.073 331.967C630.073 308.1 620.592 285.21 603.715 268.334C586.839 251.457 563.949 241.976 540.081 241.976C516.214 241.976 493.324 251.457 476.448 268.334C459.571 285.21 450.09 308.1 450.09 331.967L475.957 331.967C475.957 314.961 482.713 298.65 494.739 286.625C506.764 274.599 523.075 267.843 540.081 267.843V267.843Z" fill="#3156E6"/>
<g clip-path="url(#clip8_734_1636)">
<path d="M720.065 241.976H630.073V331.967H720.065V241.976Z" fill="#91A5F5"/>
<path opacity="0.61" d="M630.073 241.976L675.069 286.972L630.073 331.967V241.976Z" fill="#738CEF"/>
</g>
<circle cx="89.9919" cy="89.9919" r="89.9919" transform="matrix(-1 0 0 1 720.065 331.968)" fill="#7A92F4"/>
<path d="M540.081 421.959C540.081 441.633 546.529 460.765 558.436 476.426C570.343 492.087 587.055 503.415 606.012 508.675C624.97 513.935 645.129 512.838 663.403 505.552C681.678 498.265 697.061 485.191 707.199 468.33C717.336 451.469 721.669 431.75 719.534 412.193C717.398 392.635 708.913 374.316 695.376 360.04C681.84 345.763 663.998 336.316 644.581 333.145C625.165 329.973 605.244 333.251 587.868 342.478L630.073 421.959H540.081Z" fill="#91A5F5"/>
<path d="M540.081 421.959C540.081 437.337 544.022 452.459 551.528 465.881C559.033 479.303 569.853 490.578 582.954 498.63C596.056 506.681 611.002 511.242 626.367 511.875C641.732 512.508 657.003 509.194 670.723 502.247C684.442 495.301 696.153 484.955 704.738 472.196C713.322 459.437 718.494 444.692 719.76 429.366C721.025 414.04 718.343 398.645 711.967 384.651C705.592 370.657 695.737 358.53 683.343 349.427L630.073 421.959H540.081Z" fill="#3553C9"/>
<rect width="179.984" height="118.989" transform="matrix(-1 0 0 1 540.081 331.968)" fill="#3553C9"/>
<rect width="39.9964" height="18.9983" transform="matrix(-1 0 0 1 470.088 450.957)" fill="#3553C9"/>
<rect width="179.984" height="41.9962" transform="matrix(-1 0 0 1 540.081 469.955)" fill="#3553C9"/>
<rect width="62.9943" height="17.9984" rx="8.99919" transform="matrix(-1 0 0 1 439.091 481.954)" fill="#7A92F4"/>
<circle cx="8.99919" cy="8.99919" r="8.99919" transform="matrix(-1 0 0 1 525.083 481.954)" fill="#7A92F4"/>
<circle cx="8.99919" cy="8.99919" r="8.99919" transform="matrix(-1 0 0 1 497.085 481.954)" fill="#7A92F4"/>
<path d="M719.935 -28H1079.9V511.951H719.935V-28Z" fill="#4967DF"/>
<path d="M764.931 151.984H719.935V196.98H764.931V151.984Z" fill="#4262E0"/>
<path d="M809.927 196.98H719.935V241.976H809.927V196.98Z" fill="#3553C9"/>
<g clip-path="url(#clip9_734_1636)">
<path d="M830.335 16.9957C830.341 19.68 829.818 22.3392 828.796 24.821C827.773 27.3028 826.271 29.5584 824.375 31.4588C822.479 33.3592 820.227 34.8669 817.748 35.8956C815.269 36.9244 812.611 37.4539 809.927 37.4539V62.0417H719.935V-27.9502H809.927V-3.36242C815.331 -3.36243 820.514 -1.21916 824.34 2.5973C828.166 6.41377 830.322 11.5918 830.335 16.9957V16.9957Z" fill="#91A5F5"/>
<path opacity="0.61" d="M719.935 -28L764.931 16.9959L719.935 61.9919V-28Z" fill="#7A92F4"/>
</g>
<path d="M809.927 61.9919H719.935V151.984H809.927V61.9919Z" fill="#7A92F4"/>
<path d="M764.931 151.984C789.781 151.984 809.927 131.838 809.927 106.988C809.927 82.1373 789.781 61.9919 764.931 61.9919C740.08 61.9919 719.935 82.1373 719.935 106.988C719.935 131.838 740.08 151.984 764.931 151.984Z" fill="#3E5EDD"/>
<g clip-path="url(#clip10_734_1636)">
<path d="M719.935 241.976H809.927V331.967H719.935V241.976Z" fill="#91A5F5"/>
<path opacity="0.61" d="M809.927 241.976L764.931 286.972L809.927 331.967V241.976Z" fill="#738CEF"/>
</g>
<circle cx="809.927" cy="421.959" r="89.9919" fill="#7A92F4"/>
<path d="M899.919 421.959C899.919 441.633 893.471 460.765 881.564 476.426C869.657 492.087 852.945 503.415 833.988 508.675C815.03 513.935 794.871 512.838 776.597 505.552C758.322 498.265 742.939 485.191 732.801 468.33C722.664 451.469 718.331 431.75 720.466 412.193C722.602 392.635 731.087 374.316 744.624 360.04C758.16 345.763 776.002 336.316 795.419 333.145C814.835 329.973 834.756 333.251 852.132 342.478L809.927 421.959H899.919Z" fill="#91A5F5"/>
<path d="M899.919 421.959C899.919 437.337 895.978 452.459 888.472 465.881C880.967 479.303 870.147 490.578 857.046 498.63C843.944 506.681 828.998 511.242 813.633 511.875C798.268 512.508 782.997 509.194 769.277 502.247C755.558 495.301 743.847 484.955 735.262 472.196C726.678 459.437 721.506 444.692 720.24 429.366C718.975 414.04 721.657 398.645 728.033 384.651C734.408 370.657 744.263 358.53 756.657 349.427L809.927 421.959H899.919Z" fill="#3553C9"/>
<path d="M719.935 1051.95H1079.9V512H719.935V1051.95Z" fill="#4967DF"/>
<path d="M764.931 871.967H719.935V826.971H764.931V871.967Z" fill="#4262E0"/>
<path d="M809.927 826.972H719.935V781.976H809.927V826.972Z" fill="#3553C9"/>
<g clip-path="url(#clip11_734_1636)">
<path d="M830.335 1006.96C830.341 1004.27 829.818 1001.61 828.796 999.13C827.773 996.648 826.271 994.393 824.375 992.492C822.479 990.592 820.227 989.084 817.748 988.056C815.269 987.027 812.611 986.497 809.927 986.497V961.91H719.935V1051.9H809.927V1027.31C815.331 1027.31 820.514 1025.17 824.34 1021.35C828.166 1017.54 830.322 1012.36 830.335 1006.96V1006.96Z" fill="#91A5F5"/>
<path opacity="0.61" d="M719.935 1051.95L764.931 1006.96L719.935 961.959V1051.95Z" fill="#7A92F4"/>
</g>
<path d="M809.927 961.959H719.935V871.967H809.927V961.959Z" fill="#7A92F4"/>
<path d="M764.931 871.967C789.781 871.967 809.927 892.113 809.927 916.963C809.927 941.814 789.781 961.959 764.931 961.959C740.08 961.959 719.935 941.814 719.935 916.963C719.935 892.113 740.08 871.967 764.931 871.967Z" fill="#3E5EDD"/>
<g clip-path="url(#clip12_734_1636)">
<path d="M719.935 781.976H809.927V691.984H719.935V781.976Z" fill="#91A5F5"/>
<path opacity="0.61" d="M809.927 781.976L764.931 736.98L809.927 691.984V781.976Z" fill="#738CEF"/>
</g>
<circle cx="89.9919" cy="89.9919" r="89.9919" transform="matrix(1 0 0 -1 719.935 691.984)" fill="#7A92F4"/>
<path d="M899.919 601.992C899.919 582.318 893.471 563.186 881.564 547.525C869.657 531.864 852.945 520.536 833.988 515.276C815.03 510.016 794.871 511.113 776.597 518.4C758.322 525.686 742.939 538.761 732.801 555.622C722.664 572.482 718.331 592.201 720.466 611.758C722.602 631.316 731.087 649.635 744.624 663.911C758.16 678.188 776.002 687.635 795.419 690.807C814.835 693.978 834.756 690.7 852.132 681.473L809.927 601.992H899.919Z" fill="#91A5F5"/>
<path d="M899.919 601.992C899.919 586.614 895.978 571.492 888.472 558.07C880.967 544.648 870.147 533.374 857.046 525.322C843.944 517.27 828.998 512.71 813.633 512.076C798.268 511.443 782.997 514.758 769.277 521.704C755.558 528.65 743.847 538.996 735.262 551.755C726.678 564.514 721.506 579.26 720.24 594.586C718.975 609.911 721.657 625.306 728.033 639.3C734.408 653.294 744.263 665.421 756.657 674.524L809.927 601.992H899.919Z" fill="#3553C9"/>
<path d="M720.065 1051.95H360.098V512H720.065V1051.95Z" fill="#4967DF"/>
<path d="M675.069 871.967H720.065V826.971H675.069V871.967Z" fill="#4262E0"/>
<path d="M630.073 826.972H720.065V781.976H630.073V826.972Z" fill="#3553C9"/>
<g clip-path="url(#clip13_734_1636)">
<path d="M630.073 1051.95V961.959H605.515C605.522 959.273 604.998 956.611 603.974 954.127C602.949 951.643 601.444 949.386 599.545 947.486C597.646 945.585 595.391 944.078 592.908 943.051C590.425 942.024 587.764 941.497 585.077 941.501C579.665 941.501 574.474 943.651 570.647 947.479C566.819 951.306 564.669 956.497 564.669 961.909H540.081V1051.9L630.073 1051.95Z" fill="#7A92F4"/>
</g>
<g clip-path="url(#clip14_734_1636)">
<path d="M609.665 1006.96C609.659 1004.27 610.182 1001.61 611.204 999.13C612.227 996.648 613.729 994.393 615.625 992.492C617.521 990.592 619.773 989.084 622.252 988.056C624.731 987.027 627.389 986.497 630.073 986.497V961.91H720.065V1051.9H630.073V1027.31C624.669 1027.31 619.486 1025.17 615.66 1021.35C611.834 1017.54 609.678 1012.36 609.665 1006.96V1006.96Z" fill="#91A5F5"/>
<path opacity="0.61" d="M720.065 1051.95L675.069 1006.96L720.065 961.959V1051.95Z" fill="#7A92F4"/>
</g>
<path opacity="0.56" d="M450.09 1051.95H540.081V961.959H450.09V1051.95Z" fill="#4262E0"/>
<path d="M450.09 1051.95H540.081V961.959H450.09V1051.95Z" fill="#4262E0"/>
<path d="M504.625 1006.96V961.959H523.703V1008.08C521.383 1007.33 518.96 1006.95 516.524 1006.96H504.625Z" fill="#3553C9"/>
<path d="M466.468 1007.3V961.959H485.526V1006.96H470.068C468.86 1006.95 467.654 1007.07 466.468 1007.3V1007.3Z" fill="#3553C9"/>
<path d="M540.081 1051.95H450.09V1026.95C450.09 1021.65 452.196 1016.56 455.947 1012.81C459.697 1009.06 464.784 1006.96 470.088 1006.96H516.514C522.764 1006.96 528.759 1009.44 533.179 1013.86C537.598 1018.28 540.081 1024.27 540.081 1030.52V1051.95Z" fill="#91A5F5"/>
<path d="M495.086 997.416C489.817 997.416 485.546 1001.69 485.546 1006.96C485.546 1012.22 489.817 1016.49 495.086 1016.49C500.354 1016.49 504.625 1012.22 504.625 1006.96C504.625 1001.69 500.354 997.416 495.086 997.416Z" fill="#839AF4"/>
<g clip-path="url(#clip15_734_1636)">
<path d="M360.098 1051.95H450.09V961.959H360.098V1051.95Z" fill="#3553C9"/>
<path d="M360.098 1051.95V961.959H430.091C435.395 961.959 440.482 964.066 444.232 967.817C447.983 971.567 450.09 976.654 450.09 981.958V1036.03C450.09 1040.25 448.412 1044.3 445.427 1047.29C442.442 1050.27 438.393 1051.95 434.171 1051.95H360.098Z" fill="#4262E0"/>
<path d="M360.098 1051.95V961.959H407.453C410.079 961.959 412.68 962.477 415.106 963.482C417.533 964.487 419.737 965.96 421.594 967.817C425.345 971.567 427.451 976.654 427.451 981.958V1036.03C427.451 1040.25 425.774 1044.3 422.789 1047.29C419.804 1050.27 415.755 1051.95 411.533 1051.95H360.098Z" fill="#3156E6"/>
<path d="M360.098 1051.91V961.999H360.268C372.201 961.999 383.646 966.74 392.085 975.178C400.523 983.617 405.264 995.062 405.264 1007C405.264 1018.93 400.523 1030.37 392.085 1038.81C383.646 1047.25 372.201 1051.99 360.268 1051.99L360.098 1051.91Z" fill="#233B9A"/>
<path d="M360.098 1039.38V974.498H360.257C364.518 974.498 368.738 975.338 372.674 976.97C376.61 978.601 380.186 980.992 383.197 984.007C386.209 987.021 388.597 990.599 390.225 994.537C391.853 998.475 392.688 1002.69 392.685 1006.96C392.685 1015.56 389.268 1023.8 383.187 1029.88C377.106 1035.97 368.858 1039.38 360.257 1039.38H360.098Z" fill="#4262E0"/>
</g>
<path d="M630.073 961.959H720.065V871.967H630.073V961.959Z" fill="#7A92F4"/>
<path d="M675.069 871.967C650.219 871.967 630.073 892.113 630.073 916.963C630.073 941.814 650.219 961.959 675.069 961.959C699.92 961.959 720.065 941.814 720.065 916.963C720.065 892.113 699.92 871.967 675.069 871.967Z" fill="#3E5EDD"/>
<path d="M450.06 906.874V961.959H540.051H564.639C564.639 959.279 565.167 956.626 566.193 954.149C567.218 951.673 568.722 949.424 570.617 947.529C572.512 945.634 574.761 944.13 577.237 943.105C579.714 942.079 582.367 941.551 585.047 941.551C590.458 941.543 595.651 943.684 599.483 947.504C603.316 951.323 605.475 956.508 605.485 961.919H630.073V906.924H585.077V906.804C585.075 897.579 581.409 888.732 574.886 882.209C568.362 875.686 559.516 872.02 550.29 872.017H529.872C520.647 872.02 511.8 875.686 505.277 882.209C498.754 888.732 495.088 897.579 495.085 906.804V906.924H478.467V840.88L495.085 824.162H450.09L465.438 840.88V906.924L450.06 906.874Z" fill="#3553C9"/>
<path d="M630.073 827.251V772.166H540.081H515.494C515.494 774.846 514.966 777.5 513.94 779.976C512.915 782.452 511.411 784.702 509.516 786.597C507.621 788.492 505.371 789.995 502.895 791.021C500.419 792.047 497.765 792.575 495.085 792.575C489.675 792.583 484.482 790.441 480.649 786.622C476.817 782.802 474.658 777.617 474.647 772.206H450.06V827.201H495.055V827.321C495.058 836.547 498.724 845.393 505.247 851.916C511.77 858.44 520.617 862.106 529.842 862.108H550.26C559.486 862.106 568.332 858.44 574.856 851.916C581.379 845.393 585.045 836.547 585.047 827.321V827.201H601.666V893.245L585.047 909.964H630.043L614.695 893.245V827.201L630.073 827.251Z" fill="#3553C9"/>
<path d="M359.968 961.959H449.96V781.976H359.968V961.959Z" fill="#3156E6"/>
<path opacity="0.34" d="M359.968 781.976H449.96V691.984H359.968V781.976Z" fill="#7A92F4"/>
<path d="M359.967 781.976H449.959V763.047H404.963C401.049 763.016 397.305 761.438 394.548 758.659C391.791 755.88 390.245 752.123 390.245 748.209C390.243 746.075 390.704 743.967 391.595 742.029C392.485 740.091 393.785 738.368 395.404 736.98H450.099V718.061H435.401L409.343 692.004H382.585L408.673 718.061H359.967V736.98H373.236C371.966 740.587 371.32 744.384 371.326 748.209C371.318 753.352 372.491 758.429 374.756 763.047H359.967V781.976Z" fill="#91A5F5"/>
<path d="M359.968 909.834V834.091C370.013 834.091 379.647 838.082 386.75 845.185C393.854 852.288 397.844 861.922 397.844 871.968C397.844 876.941 396.864 881.866 394.961 886.461C393.057 891.056 390.267 895.231 386.75 898.747C383.232 902.263 379.057 905.052 374.462 906.955C369.866 908.857 364.941 909.836 359.968 909.834V909.834Z" fill="#4B6DF4"/>
<path d="M502.215 691.854L577.958 691.854C577.958 701.899 573.967 711.533 566.864 718.637C559.761 725.74 550.127 729.73 540.081 729.73C535.108 729.73 530.183 728.751 525.588 726.847C520.993 724.943 516.818 722.153 513.302 718.636C509.786 715.119 506.997 710.943 505.094 706.348C503.192 701.752 502.213 696.827 502.215 691.854V691.854Z" fill="#3156E6"/>
<path d="M424.222 871.967C424.222 854.961 417.466 838.65 405.44 826.625C393.415 814.599 377.104 807.843 360.098 807.843V781.976C383.965 781.976 406.855 791.457 423.732 808.334C440.608 825.21 450.09 848.1 450.09 871.967C450.09 895.835 440.608 918.725 423.732 935.601C406.855 952.478 383.965 961.959 360.098 961.959V936.092C377.104 936.092 393.415 929.336 405.44 917.31C417.466 905.285 424.222 888.974 424.222 871.967V871.967Z" fill="#4B6DF4"/>
<path d="M540.081 756.108C557.088 756.108 573.398 749.352 585.424 737.326C597.45 725.301 604.206 708.991 604.206 691.984L630.073 691.984C630.073 715.851 620.592 738.741 603.715 755.618C586.839 772.494 563.949 781.976 540.081 781.976C516.214 781.976 493.324 772.494 476.448 755.618C459.571 738.741 450.09 715.851 450.09 691.984L475.957 691.984C475.957 708.991 482.713 725.301 494.739 737.326C506.764 749.352 523.075 756.108 540.081 756.108V756.108Z" fill="#3156E6"/>
<g clip-path="url(#clip16_734_1636)">
<path d="M720.065 781.976H630.073V691.984H720.065V781.976Z" fill="#91A5F5"/>
<path opacity="0.61" d="M630.073 781.976L675.069 736.98L630.073 691.984V781.976Z" fill="#738CEF"/>
</g>
<circle cx="630.073" cy="601.992" r="89.9919" transform="rotate(180 630.073 601.992)" fill="#7A92F4"/>
<path d="M540.081 601.992C540.081 582.318 546.529 563.186 558.436 547.525C570.343 531.864 587.055 520.536 606.012 515.276C624.97 510.016 645.129 511.113 663.403 518.4C681.678 525.686 697.061 538.761 707.199 555.622C717.336 572.482 721.669 592.201 719.534 611.758C717.398 631.316 708.913 649.635 695.376 663.911C681.84 678.188 663.998 687.635 644.581 690.807C625.165 693.978 605.244 690.7 587.868 681.473L630.073 601.992H540.081Z" fill="#91A5F5"/>
<path d="M540.081 601.992C540.081 586.614 544.022 571.492 551.528 558.07C559.033 544.648 569.853 533.374 582.954 525.322C596.056 517.27 611.002 512.71 626.367 512.076C641.732 511.443 657.003 514.758 670.723 521.704C684.442 528.65 696.153 538.996 704.738 551.755C713.322 564.514 718.494 579.26 719.76 594.586C721.025 609.911 718.343 625.306 711.967 639.3C705.592 653.294 695.737 665.421 683.343 674.524L630.073 601.992H540.081Z" fill="#3553C9"/>
<rect x="540.081" y="691.984" width="179.984" height="118.989" transform="rotate(180 540.081 691.984)" fill="#3553C9"/>
<rect x="470.088" y="572.995" width="39.9964" height="18.9983" transform="rotate(180 470.088 572.995)" fill="#3553C9"/>
<rect x="540.081" y="553.996" width="179.984" height="41.9962" transform="rotate(180 540.081 553.996)" fill="#3553C9"/>
<rect x="439.091" y="541.997" width="62.9943" height="17.9984" rx="8.99919" transform="rotate(180 439.091 541.997)" fill="#7A92F4"/>
<circle cx="516.084" cy="532.998" r="8.99919" transform="rotate(180 516.084 532.998)" fill="#7A92F4"/>
<circle cx="488.086" cy="532.998" r="8.99919" transform="rotate(180 488.086 532.998)" fill="#7A92F4"/>
<path d="M0 1051.95H359.967V512H0V1051.95Z" fill="#4967DF"/>
<path d="M44.9959 871.967H0V826.971H44.9959V871.967Z" fill="#4262E0"/>
<path d="M89.9919 826.972H0V781.976H89.9919V826.972Z" fill="#3553C9"/>
<g clip-path="url(#clip17_734_1636)">
<path d="M89.9919 1051.95V961.959H114.55C114.543 959.273 115.067 956.611 116.092 954.127C117.116 951.643 118.621 949.386 120.52 947.486C122.419 945.585 124.674 944.078 127.157 943.051C129.64 942.024 132.301 941.497 134.988 941.501C140.4 941.501 145.591 943.651 149.419 947.479C153.246 951.306 155.396 956.497 155.396 961.909H179.984V1051.9L89.9919 1051.95Z" fill="#7A92F4"/>
</g>
<g clip-path="url(#clip18_734_1636)">
<path d="M110.4 1006.96C110.407 1004.27 109.884 1001.61 108.861 999.13C107.838 996.648 106.336 994.393 104.44 992.492C102.545 990.592 100.293 989.084 97.8133 988.056C95.334 987.027 92.6761 986.497 89.9919 986.497V961.91H0V1051.9H89.9919V1027.31C95.3958 1027.31 100.579 1025.17 104.405 1021.35C108.231 1017.54 110.387 1012.36 110.4 1006.96V1006.96Z" fill="#91A5F5"/>
<path opacity="0.61" d="M0 1051.95L44.9959 1006.96L0 961.959V1051.95Z" fill="#7A92F4"/>
</g>
<path opacity="0.56" d="M269.976 1051.95H179.984V961.959H269.976V1051.95Z" fill="#4262E0"/>
<path d="M269.976 1051.95H179.984V961.959H269.976V1051.95Z" fill="#4262E0"/>
<path d="M215.44 1006.96V961.959H196.362V1008.08C198.682 1007.33 201.105 1006.95 203.542 1006.96H215.44Z" fill="#3553C9"/>
<path d="M253.597 1007.3V961.959H234.539V1006.96H249.997C251.206 1006.95 252.411 1007.07 253.597 1007.3V1007.3Z" fill="#3553C9"/>
<path d="M179.984 1051.95H269.976V1026.95C269.976 1021.65 267.869 1016.56 264.118 1012.81C260.368 1009.06 255.281 1006.96 249.977 1006.96H203.552C197.301 1006.96 191.306 1009.44 186.887 1013.86C182.467 1018.28 179.984 1024.27 179.984 1030.52V1051.95Z" fill="#91A5F5"/>
<path d="M224.98 997.416C230.248 997.416 234.519 1001.69 234.519 1006.96C234.519 1012.22 230.248 1016.49 224.98 1016.49C219.711 1016.49 215.44 1012.22 215.44 1006.96C215.44 1001.69 219.711 997.416 224.98 997.416Z" fill="#839AF4"/>
<g clip-path="url(#clip19_734_1636)">
<path d="M359.967 1051.95H269.976V961.959H359.967V1051.95Z" fill="#3553C9"/>
<path d="M359.967 1051.95V961.959H289.974C284.67 961.959 279.583 964.066 275.833 967.817C272.083 971.567 269.976 976.654 269.976 981.958V1036.03C269.976 1040.25 271.653 1044.3 274.638 1047.29C277.623 1050.27 281.672 1051.95 285.894 1051.95H359.967Z" fill="#4262E0"/>
<path d="M359.968 1051.95V961.959H312.612C309.986 961.959 307.385 962.477 304.959 963.482C302.533 964.487 300.328 965.96 298.471 967.817C294.721 971.567 292.614 976.654 292.614 981.958V1036.03C292.614 1040.25 294.291 1044.3 297.276 1047.29C300.261 1050.27 304.31 1051.95 308.532 1051.95H359.968Z" fill="#3156E6"/>
<path d="M359.967 1051.91V961.999H359.797C347.864 961.999 336.419 966.74 327.981 975.178C319.542 983.617 314.802 995.062 314.802 1007C314.802 1018.93 319.542 1030.37 327.981 1038.81C336.419 1047.25 347.864 1051.99 359.797 1051.99L359.967 1051.91Z" fill="#233B9A"/>
<path d="M359.968 1039.38V974.498H359.808C355.547 974.498 351.328 975.338 347.391 976.97C343.455 978.601 339.879 980.992 336.868 984.007C333.856 987.021 331.468 990.599 329.84 994.537C328.212 998.475 327.377 1002.69 327.381 1006.96C327.381 1015.56 330.797 1023.8 336.878 1029.88C342.959 1035.97 351.207 1039.38 359.808 1039.38H359.968Z" fill="#4262E0"/>
</g>
<path d="M89.9919 961.959H0V871.967H89.9919V961.959Z" fill="#7A92F4"/>
<path d="M44.9959 871.967C69.8465 871.967 89.9919 892.113 89.9919 916.963C89.9919 941.814 69.8465 961.959 44.9959 961.959C20.1454 961.959 0 941.814 0 916.963C0 892.113 20.1454 871.967 44.9959 871.967Z" fill="#3E5EDD"/>
<path d="M270.006 906.874V961.959H180.014H155.426C155.426 959.279 154.898 956.626 153.872 954.149C152.847 951.673 151.344 949.424 149.449 947.529C147.553 945.634 145.304 944.13 142.828 943.105C140.352 942.079 137.698 941.551 135.018 941.551C129.607 941.543 124.414 943.684 120.582 947.504C116.749 951.323 114.59 956.508 114.58 961.919H89.9919V906.924H134.988V906.804C134.99 897.579 138.656 888.732 145.18 882.209C151.703 875.686 160.549 872.02 169.775 872.017H190.193C199.418 872.02 208.265 875.686 214.788 882.209C221.311 888.732 224.977 897.579 224.98 906.804V906.924H241.598V840.88L224.98 824.162H269.976L254.627 840.88V906.924L270.006 906.874Z" fill="#3553C9"/>
<path d="M89.9919 827.251V772.166H179.984H204.572C204.572 774.846 205.099 777.5 206.125 779.976C207.151 782.452 208.654 784.702 210.549 786.597C212.444 788.492 214.694 789.995 217.17 791.021C219.646 792.047 222.3 792.575 224.98 792.575C230.391 792.583 235.583 790.441 239.416 786.622C243.248 782.802 245.407 777.617 245.418 772.206H270.006V827.201H225.01V827.321C225.007 836.547 221.341 845.393 214.818 851.916C208.295 858.44 199.448 862.106 190.223 862.108H169.805C160.579 862.106 151.733 858.44 145.21 851.916C138.686 845.393 135.02 836.547 135.018 827.321V827.201H118.399V893.245L135.018 909.964H90.0219L105.371 893.245V827.201L89.9919 827.251Z" fill="#3553C9"/>
<path d="M360.097 961.959H270.105V781.976H360.097V961.959Z" fill="#3156E6"/>
<path opacity="0.34" d="M360.097 781.976H270.105V691.984H360.097V781.976Z" fill="#7A92F4"/>
<path d="M360.098 781.976H270.106V763.047H315.102C319.016 763.016 322.76 761.438 325.517 758.659C328.274 755.88 329.821 752.123 329.82 748.209C329.822 746.075 329.361 743.967 328.471 742.029C327.58 740.091 326.28 738.368 324.661 736.98H269.966V718.061H284.664L310.722 692.004H337.48L311.392 718.061H360.098V736.98H346.829C348.099 740.587 348.745 744.384 348.739 748.209C348.747 753.352 347.574 758.429 345.309 763.047H360.098V781.976Z" fill="#91A5F5"/>
<path d="M360.097 909.834V834.091C350.052 834.091 340.418 838.082 333.314 845.185C326.211 852.288 322.221 861.922 322.221 871.968C322.221 876.941 323.2 881.866 325.104 886.461C327.008 891.056 329.798 895.231 333.315 898.747C336.832 902.263 341.008 905.052 345.603 906.955C350.199 908.857 355.124 909.836 360.097 909.834V909.834Z" fill="#4B6DF4"/>
<path d="M217.85 691.854L142.107 691.854C142.107 701.899 146.098 711.533 153.201 718.637C160.304 725.74 169.938 729.73 179.984 729.73C184.957 729.73 189.882 728.751 194.477 726.847C199.072 724.943 203.247 722.153 206.763 718.636C210.279 715.119 213.068 710.943 214.971 706.348C216.873 701.752 217.852 696.827 217.85 691.854V691.854Z" fill="#3156E6"/>
<path d="M295.843 871.967C295.843 854.961 302.599 838.65 314.625 826.625C326.65 814.599 342.961 807.843 359.967 807.843V781.976C336.1 781.976 313.21 791.457 296.334 808.334C279.457 825.21 269.976 848.1 269.976 871.967C269.976 895.835 279.457 918.725 296.334 935.601C313.21 952.478 336.1 961.959 359.967 961.959V936.092C342.961 936.092 326.65 929.336 314.625 917.31C302.599 905.285 295.843 888.974 295.843 871.967V871.967Z" fill="#4B6DF4"/>
<path d="M179.984 756.108C162.977 756.108 146.667 749.352 134.641 737.326C122.615 725.301 115.86 708.991 115.86 691.984L89.9919 691.984C89.9919 715.851 99.4731 738.741 116.35 755.618C133.227 772.494 156.116 781.976 179.984 781.976C203.851 781.976 226.741 772.494 243.618 755.618C260.494 738.741 269.976 715.851 269.976 691.984L244.108 691.984C244.108 708.991 237.352 725.301 225.326 737.326C213.301 749.352 196.991 756.108 179.984 756.108V756.108Z" fill="#3156E6"/>
<g clip-path="url(#clip20_734_1636)">
<path d="M2.28882e-05 781.976H89.9919V691.984H2.28882e-05V781.976Z" fill="#91A5F5"/>
<path opacity="0.61" d="M89.9919 781.976L44.996 736.98L89.9919 691.984V781.976Z" fill="#738CEF"/>
</g>
<circle cx="89.9919" cy="89.9919" r="89.9919" transform="matrix(1 0 0 -1 0 691.984)" fill="#7A92F4"/>
<path d="M179.984 601.992C179.984 582.318 173.537 563.186 161.629 547.525C149.722 531.864 133.011 520.536 114.053 515.276C95.0955 510.016 74.9365 511.113 56.6619 518.4C38.3872 525.686 23.0038 538.761 12.8665 555.622C2.72912 572.482 -1.60359 592.201 0.531535 611.758C2.66666 631.316 11.152 649.635 24.6886 663.911C38.2253 678.188 56.0674 687.635 75.4838 690.807C94.9002 693.978 114.821 690.7 132.197 681.473L89.9919 601.992H179.984Z" fill="#91A5F5"/>
<path d="M179.984 601.992C179.984 586.614 176.043 571.492 168.538 558.07C161.032 544.648 150.213 533.374 137.111 525.322C124.009 517.27 109.063 512.71 93.6982 512.076C78.3332 511.443 63.0623 514.758 49.3425 521.704C35.6228 528.65 23.9119 538.996 15.3273 551.755C6.74274 564.514 1.5709 579.26 0.30529 594.586C-0.960322 609.911 1.72251 625.306 8.09781 639.3C14.4731 653.294 24.3281 665.421 36.7226 674.524L89.9919 601.992H179.984Z" fill="#3553C9"/>
<rect width="179.984" height="118.989" transform="matrix(1 0 0 -1 179.984 691.984)" fill="#3553C9"/>
<rect width="39.9964" height="18.9983" transform="matrix(1 0 0 -1 249.977 572.995)" fill="#3553C9"/>
<rect width="179.984" height="41.9962" transform="matrix(1 0 0 -1 179.984 553.996)" fill="#3553C9"/>
<rect width="62.9943" height="17.9984" rx="8.99919" transform="matrix(1 0 0 -1 280.975 541.997)" fill="#7A92F4"/>
<circle cx="8.99919" cy="8.99919" r="8.99919" transform="matrix(1 0 0 -1 194.982 541.997)" fill="#7A92F4"/>
<circle cx="8.99919" cy="8.99919" r="8.99919" transform="matrix(1 0 0 -1 222.98 541.997)" fill="#7A92F4"/>
<path d="M0 0H765V1024H0V0Z" fill="url(#paint0_linear_734_1636)"/>
</g>
</svg>
